<svg version="1" xmlns="http://www.w3.org/2000/svg" width="1365.333" height="1365.333" viewBox="0 0 1024.000000 1024.000000"><path d="M514.5 3.1c-63.9 4.7-120.3 24.3-162.9 56.4-4.8 3.7-8.9 6.5-9.1 6.3-.1-.2-.7-10.5-1.2-23.1-.5-12.5-1.2-22.9-1.5-23.3-.8-.8-13 1.4-25.4 4.6-46 12-72 40.9-80 88.5-2.1 12.6-2.8 38.5-1.6 54 .6 7.1 1 13 .9 13.1-.1.1-5.1-4.3-11.2-9.8-9.7-8.9-25.6-21.8-26.8-21.8-.9 0-9.7 25-12.2 34.5-12.9 49.7-7.6 103.3 15.7 159 6 14.3 17.6 37.4 25.4 50.5 5.4 9.1 5.5 9.6 4.1 12-10.2 16.5-13.7 26.2-14.4 40-.9 16.5 4.3 32.4 15.1 46.7 7.5 9.9 23.1 22.1 35.1 27.4l4.5 2v93.8l7.1 12.3c31.3 53.8 68.7 97.6 108.9 127.5 16.5 12.3 39.7 25.3 56.8 31.7l7.2 2.8v7.8h-44.2c-38.5 0-46.1.3-58 2-31.2 4.4-55 12.8-76 26.6-10.7 7.1-28.3 25-35.8 36.4-15.8 24.2-26.2 55.8-27.9 84.5-.6 10.6.4 70.4 1.3 71.2.1.1 137.8.5 306.1.9l305.8.7-.7-39.4c-.3-21.7-1.1-43.7-1.7-48.9-3.1-28.6-11.1-52-25.2-73-6.5-9.8-24.1-27.2-34.2-33.9-20.8-13.7-46.4-22.5-75.5-26-16.4-2-50.5-3.2-73.2-2.5l-22.8.7v-5.7c0-4.1.4-5.6 1.4-5.6 2.9 0 30.9-14.9 41.8-22.3 17.5-11.8 26.9-19.7 44.8-37.6 29.7-29.7 51.4-60.1 73.7-102.7l7.3-14.1v-83.9l7.4-3.3c27.9-12.3 47-32.7 53.2-57.1 1.2-4.9 1.5-9.3 1.2-18.5-.4-10.3-.9-13.2-3.7-20.6-3.7-9.9-10.4-20.6-18.7-29.7l-5.7-6.3 4.6-14.7c15.3-48.4 22.1-87.2 22.1-126.7 0-34.5-4.8-61.9-15.8-90.9-1.4-3.7-2.6-7.4-2.6-8 0-.7 12.8-10.7 28.5-22.2 15.6-11.5 28.4-21.1 28.4-21.4.1-.9-25.1-14.7-42.5-23.4C732.5 40.8 665.1 31.2 605.7 51c-6.5 2.2-12.1 4-12.3 4-.1 0 1.9-3.5 4.5-7.8 9.4-15.1 19.1-35 19.1-39 0-1-24.9-3.9-44-5.2-16-1.1-43.1-1-58.5.1zm143.7 166.8c32 8.3 57.7 31.4 74.6 67.1l5 10.5 1.1 178 1.1 177.9-8.1 14.9c-31.7 58.8-67.8 101-110.8 129.8-69.7 46.6-146.2 46.4-216.6-.6-41-27.4-81-72.5-113.9-128.7l-5.6-9.6.2-177.9.3-177.8 3.8-10.9c14.8-42.8 42.8-65.6 87.2-71.1 10.8-1.3 25.8 1.6 58.5 11.5 42.9 12.9 62.5 16.1 86.8 14 21.1-1.9 32.3-4.9 81.3-21.9 8.1-2.8 18.2-5.7 22.5-6.6 9.8-1.8 22.2-1.3 32.6 1.4zm118.5 229c29.5 24.9 33.6 59.9 10.1 85.6-8.3 9.1-28.4 22.2-30.6 20.1-.7-.7-.5-108.6.2-109.3.2-.2 3-.7 6.2-1.2s6.2-.9 6.5-1c.3 0 3.7 2.6 7.6 5.8zM269 450.6v51.6l-4.7-2.8c-24.3-14-37.3-37.4-33.4-60.1 1.4-8.1 6.9-20.3 12.2-27.2 2.9-3.7 5-4.9 13.9-8.6 5.8-2.4 10.8-4.4 11.3-4.4.4-.1.7 23.1.7 51.5zm301.7 356.1c-.5 17.4-2.2 24.6-8 35.7-7.7 14.5-22.6 23.8-42.3 26.6-7 .9-8.9.8-15.8-1-17.3-4.4-28.1-14.9-34-32.8-3.3-10-4.4-16.5-5.2-30.8-.7-11.1-.6-11.6 1.2-11 24.1 7.4 71.5 7.1 96.4-.8 8.8-2.8 8.3-3.7 7.7 14.1zm-185.8 7.5c.4 1.3 6.3 24.2 13.1 51 6.7 26.7 12.6 49.2 13 49.9.6.8 3.5-.3 10.6-4.1 8.3-4.4 41.8-23 44.8-24.8.9-.5-9.8 20.2-11.7 22.6-.7.9-.3 2 1.5 4 1.4 1.5 9.1 10.2 17.2 19.4l14.6 16.7-11.4 25.8-11.4 25.8-45.6.3-45.6.2v-93.8c0-51.6.3-94.2.7-94.5.3-.4 2.6-.7 5-.7 3.6 0 4.5.4 5.2 2.2zm240.7-.5c-.3 1-4.9 18.2-10.2 38.3-5.3 20.1-10 36.8-10.3 37.3-.4.4-9.3-4.7-19.8-11.4l-19-12.2 5.4-7.1c2.9-3.9 6.7-10.5 8.4-14.6 3.1-7.2 6.9-22.8 6.9-28.1 0-1.4.3-2.9.7-3.2.3-.4 9.1-.7 19.5-.7 17.6 0 18.9.1 18.4 1.7zm30.8.9c.3.9.6 43.2.6 94v92.4l-42.7-.2-42.6-.3-9.9-23.5c-5.4-12.9-10-24.2-10.3-25-.3-.9 4.8-9.7 12-20.9 6.9-10.6 12.5-19.6 12.5-20.1s-2.7-6.6-6-13.6-5.9-12.9-5.7-13c.2-.2 11.5 6.8 25.2 15.6 13.8 8.7 25.3 15.6 25.6 15.2.3-.4 6.6-23.2 13.9-50.7 7.3-27.5 13.5-50.3 13.7-50.8.2-.4 3.3-.7 6.8-.7 4.8 0 6.4.4 6.9 1.6zm-206 5.5c1.7 14.4 7.7 30.8 15.1 40.9 2.7 3.6 3.2 5 2.2 5.7-2.3 1.9-45.8 25.6-46.1 25.2-.1-.2-4.4-17.1-9.6-37.4-5.1-20.4-9.5-37.5-9.7-38.2-.6-1.6 3.2-2 26.8-2.1l20.6-.2.7 6.1z"/><path d="M378.6 309.6c-15.3 2.3-31.4 7.4-43.9 13.6l-5.8 2.9 3.6 6.7c2.1 3.7 3.8 6.8 4 7 .1.1 3.6-1.3 7.7-3.2 21.8-9.9 51.2-14.7 72.2-11.7 4.4.6 8.1 1 8.2.8.5-.4 3.3-15.1 3-15.4-.1-.2-3.3-.7-7.2-1.3-9.6-1.4-31.2-1.1-41.8.6zM607.5 309.2c-4.3.5-8.1 1-8.3 1.2-.4.5 2 13.3 2.8 14.6.5.8 3.9.8 11.8 0 21-2 46 2.2 66.5 11 5.4 2.3 9.9 4.1 10.1 3.9.2-.2 1.9-3.4 4-7l3.6-6.6-8.7-4c-25.4-11.7-54.1-16.3-81.8-13.1zM382.5 349.6c-13.9 7.5-16.7 25-5.9 35.8 8.2 8.1 23.4 7.9 31-.6 6.6-7.2 7.9-17.9 3.1-26.1-4.2-7.1-9.4-10.1-18.1-10.5-5.1-.2-7.9.2-10.1 1.4zm12.9 15.7c2.1 1.6 2.4 6 .6 8.2-1.6 2-5.9 1.9-8.2-.2-5.2-4.7 1.9-12.2 7.6-8zM623.5 349.6C615.4 354 611 361 611 369.4c0 12.9 9 21.9 21.9 21.9 12.6 0 21.4-9 21.5-21.9 0-7.5-3.5-14.1-9.6-18.2-5.2-3.4-16.4-4.2-21.3-1.6zm12.6 15.4c2.2 1.2 2.7 6.8.7 8.8-1.7 1.7-6.4 1.5-8.2-.4-4.8-4.7 1.4-11.6 7.5-8.4zM470.7 521.5l-3.6 7.4 7.2 2.9c19.1 7.9 35.2 9.7 56.2 6.1 8-1.4 27.6-7.9 28.1-9.4.4-1-5-14.5-5.9-14.5-.2 0-3.2 1.1-6.6 2.5-21.4 8.7-45.4 9-65 .6l-6.8-2.9-3.6 7.3zM423.3 592.6c-1.3 3.6.5 26.9 2.7 33.9 7 22.1 22.8 37.1 47.5 44.8 12.3 3.8 22.5 5.1 40.5 5.1 23.7-.1 39.1-3.3 55-11.5 23.1-12 36-35.5 36-65.7V591h-90.5c-81.2 0-90.6.2-91.2 1.6zM588 609.8c0 4.6-2.8 13.8-6.1 20.4-6.6 13-19.7 22.2-38.4 27-8.1 2.1-11.2 2.3-31 2.2-19.4 0-23-.3-30-2.2-25.6-7-39.9-22-43-45l-.7-5.2H588v2.8z"/></svg>